<svg xmlns="http://www.w3.org/2000/svg" xmlns:xlink="http://www.w3.org/1999/xlink"
	 viewBox="0 0 1920 100" style="enable-background:new 0 0 1920 100;" xml:space="preserve">

	<style type="text/css">
		.footer0{fill:none;}
		.footer1{fill:#000;}
	</style>
	<g>
		<path class="footer0" d="M929.18,12.27c15.57,0,30.32,5.27,43.46,14.68c5.62-5.33,11.83-8.29,18.36-8.29c8.88,0,17.16,5.46,24.16,14.91
			c7.4-17.94,25.06-30.57,45.66-30.57c14.17,0,26.95,5.97,35.96,15.54c12.62-5.92,26.61-9.21,41.34-9.21
			c23.84,0,45.76,8.63,63.06,23.07c17.56-19.97,42.23-32.4,69.56-32.4H816.72c27.33,0,52.04,10.12,69.74,26.43
			C899.41,17.35,913.9,12.27,929.18,12.27z"/>
		<path class="footer0" d="M1340.73,32.89c16.29-9.08,34.92-14.23,54.72-14.23c21.63,0,41.87,6.15,59.17,16.85
			C1472.7,15.54,1498.82,3,1527.87,3c41.65,0,77.29,25.8,91.8,62.29C1637.71,54.3,1659.34,47,1683.3,47
			c42.92,0,78.39,23.42,99.1,49.56c10.12-20.85,32.93-42.04,63.86-42.04c12.28,0,23.29,3.34,32.72,8.68
			c-0.08-1.29-0.12-2.59-0.12-3.9c0-31.66,24.11-59.35,35.55-56.3c2.08,0.55,3.94,2.18,5.59,4.66V0h-649.26
			C1298.29,0,1323.14,12.63,1340.73,32.89z"/>
		<path class="footer0" d="M79.29,27.2c29.19,0,55.63,11.49,74.84,30.08c39.52-34.7,94.61-56.23,155.54-56.23
			c62.48,0,118.82,22.64,158.52,58.9c10.86-2.96,22.74-4.58,35.18-4.58c15.97,0,31.01,2.67,44.16,7.39
			c36.57-23.25,79.12-36.57,124.52-36.57c22.86,0,45,3.38,66.01,9.7C755.79,14.13,784.42,0,816.72,0H0v61.85
			C19.47,40.59,47.78,27.2,79.29,27.2z"/>
		<path class="footer1" d="M738.06,35.89c-21.01-6.32-43.15-9.7-66.01-9.7c-45.4,0-87.95,13.32-124.52,36.57
			c-13.15-4.72-28.19-7.39-44.16-7.39c-12.44,0-24.32,1.62-35.18,4.58c-39.7-36.26-96.04-58.9-158.52-58.9
			c-60.93,0-116.02,21.53-155.54,56.23C134.92,38.69,108.48,27.2,79.29,27.2C47.78,27.2,19.47,40.59,0,61.85V100h1920V7.66
			c-1.64-2.47-3.51-4.1-5.59-4.66c-11.44-3.05-35.55,24.64-35.55,56.3c0,1.31,0.04,2.61,0.12,3.9c-9.43-5.34-20.44-8.68-32.72-8.68
			c-30.93,0-53.74,21.19-63.86,42.04C1761.69,70.42,1726.22,47,1683.3,47c-23.96,0-45.59,7.3-63.63,18.29
			C1605.16,28.8,1569.52,3,1527.87,3c-29.05,0-55.17,12.54-73.25,32.51c-17.3-10.7-37.54-16.85-59.17-16.85
			c-19.8,0-38.43,5.15-54.72,14.23C1323.14,12.63,1298.29,0,1270.74,0c-27.33,0-52,12.43-69.56,32.4
			c-17.3-14.44-39.22-23.07-63.06-23.07c-14.73,0-28.72,3.29-41.34,9.21C1087.77,8.97,1074.99,3,1060.82,3
			c-20.6,0-38.26,12.63-45.66,30.57c-7-9.45-15.28-14.91-24.16-14.91c-6.53,0-12.74,2.96-18.36,8.29
			c-13.14-9.41-27.89-14.68-43.46-14.68c-15.28,0-29.77,5.08-42.72,14.16C868.76,10.12,844.05,0,816.72,0
			C784.42,0,755.79,14.13,738.06,35.89z"/>
	</g>
</svg>