<svg xmlns="http://www.w3.org/2000/svg" xmlns:xlink="http://www.w3.org/1999/xlink" x="0px" y="0px"
	 viewBox="0 0 1920 100" style="enable-background:new 0 0 1920 100;opacity: .6;" xml:space="preserve">
	<style type="text/css">
		.st0{fill:none;}
		.st1{fill:#141414;}
	</style>
	<g>
		<path class="st0" d="M990.82,87.73c-15.57,0-30.32-5.27-43.46-14.68c-5.62,5.33-11.83,8.29-18.36,8.29
			c-8.88,0-17.16-5.46-24.16-14.91C897.44,84.37,879.78,97,859.18,97c-14.17,0-26.95-5.97-35.96-15.54
			c-12.62,5.92-26.61,9.21-41.34,9.21c-23.84,0-45.76-8.63-63.06-23.07c-17.56,19.97-42.23,32.4-69.56,32.4h454.02
			c-27.33,0-52.04-10.12-69.74-26.43C1020.59,82.65,1006.1,87.73,990.82,87.73z"/>
		<path class="st0" d="M579.27,67.11c-16.29,9.08-34.92,14.23-54.72,14.23c-21.63,0-41.87-6.15-59.17-16.85
			C447.3,84.46,421.18,97,392.13,97c-41.65,0-77.29-25.8-91.8-62.29C282.29,45.7,260.66,53,236.7,53c-42.92,0-78.39-23.42-99.1-49.56
			c-10.12,20.85-32.93,42.04-63.86,42.04c-12.28,0-23.29-3.34-32.72-8.68c0.08,1.29,0.12,2.59,0.12,3.9
			c0,31.66-24.11,59.35-35.55,56.3C3.51,96.45,1.64,94.82,0,92.34V100h649.26C621.71,100,596.86,87.37,579.27,67.11z"/>
		<path class="st0" d="M1840.71,72.8c-29.19,0-55.63-11.49-74.84-30.08c-39.52,34.7-94.61,56.23-155.54,56.23
			c-62.48,0-118.82-22.64-158.52-58.9c-10.86,2.96-22.74,4.58-35.18,4.58c-15.97,0-31.01-2.67-44.16-7.39
			c-36.57,23.25-79.12,36.57-124.52,36.57c-22.86,0-45-3.38-66.01-9.7c-17.73,21.76-46.36,35.89-78.66,35.89H1920V38.15
			C1900.53,59.41,1872.22,72.8,1840.71,72.8z"/>
		<path class="st1" d="M1181.94,64.11c21.01,6.32,43.15,9.7,66.01,9.7c45.4,0,87.95-13.32,124.52-36.57
			c13.15,4.72,28.19,7.39,44.16,7.39c12.44,0,24.32-1.62,35.18-4.58c39.7,36.26,96.04,58.9,158.52,58.9
			c60.93,0,116.02-21.53,155.54-56.23c19.21,18.59,45.65,30.08,74.84,30.08c31.52,0,59.82-13.39,79.29-34.65V0H0v92.34
			c1.64,2.47,3.51,4.1,5.59,4.66c11.44,3.05,35.55-24.64,35.55-56.3c0-1.31-0.04-2.61-0.12-3.9c9.43,5.34,20.44,8.68,32.72,8.68
			c30.93,0,53.74-21.19,63.86-42.04C158.31,29.58,193.78,53,236.7,53c23.96,0,45.59-7.3,63.63-18.29C314.84,71.2,350.48,97,392.13,97
			c29.05,0,55.17-12.54,73.25-32.51c17.3,10.7,37.54,16.85,59.17,16.85c19.8,0,38.43-5.15,54.72-14.23
			C596.86,87.37,621.71,100,649.26,100c27.33,0,52-12.43,69.56-32.4c17.3,14.44,39.22,23.07,63.06,23.07
			c14.73,0,28.72-3.29,41.34-9.21C832.23,91.03,845.01,97,859.18,97c20.6,0,38.26-12.63,45.66-30.57c7,9.45,15.28,14.91,24.16,14.91
			c6.53,0,12.74-2.96,18.36-8.29c13.14,9.41,27.89,14.68,43.46,14.68c15.28,0,29.77-5.08,42.72-14.16
			c17.7,16.31,42.41,26.43,69.74,26.43C1135.58,100,1164.21,85.87,1181.94,64.11z"/>
	</g>
</svg>