<svg class="yenilik-sag" xmlns="http://www.w3.org/2000/svg" xmlns:xlink="http://www.w3.org/1999/xlink" x="0px" y="0px" viewBox="0 0 100 1920" style="enable-background:new 0 0 100 1920;" xml:space="preserve">

	<style type="text/css">
		.first0{fill:none;}
		.first1{fill:#7F0CF7;}
	</style>
	<g>
		<path class="first0" d="M77.39,100.08c0,18.09-4.64,35.1-12.81,49.9c14.88,13.69,24.2,33.34,24.2,55.17c0,20.78-8.45,39.59-22.1,53.16
			c6.89,18.3,10.71,38.53,10.71,59.81c0,41.44-14.49,78.93-37.88,105.9c6.74,16.36,10.49,34.5,10.49,53.6
			c0,15.77-2.56,30.89-7.25,44.89c20.87,13.75,34.64,37.4,34.64,64.26c0,20.6-8.1,39.31-21.29,53.12
			c13.53,25.15,21.29,54.5,21.29,85.83c0,49.26-19.19,93.6-49.8,124.49C70.17,882.95,98,937.16,98,998.5
			c0,45.17-15.1,86.49-40.05,118.2c5.24,14.87,8.23,31.97,8.23,50.16c0,31.49-8.94,59.7-23.06,78.73
			c27.93,18.8,45.66,46.87,45.66,78.23c0,24.29-10.63,46.6-28.4,64.17c0.37,2.2,0.56,4.44,0.56,6.71c0,14.37-7.58,27.53-20.15,37.67
			c28.73,17.03,47.99,48.34,47.99,84.17c0,22.07-7.31,42.44-19.65,58.8c8.37,9.43,13.33,21.18,13.33,33.92
			c0,18.48-10.45,34.88-26.59,45.15c7.3,20.4,11.4,43.31,11.4,67.51c0,22.38-3.5,43.64-9.81,62.85c15.48,9.79,25,23.11,25,37.78
			c0,13.91-8.56,26.6-22.63,36.22c-9.4,27.19-30.42,49.25-57.39,60.77H100l0-1920l-100,0l0,0.33
			C44.53,11.46,77.39,51.93,77.39,100.08z"/>
		<path class="first1" d="M59.83,1858.77c14.07-9.62,22.63-22.31,22.63-36.22c0-14.67-9.52-27.99-25-37.78
			c-0.21,0.69-0.44,1.36-0.68,2.04c-0.52-1.16-1.05-2.31-1.62-3.44c0.78,0.46,1.55,0.92,2.3,1.4c6.31-19.21,9.81-40.47,9.81-62.85
			c0-24.2-4.1-47.11-11.4-67.51c16.14-10.27,26.59-26.67,26.59-45.15c0-12.74-4.96-24.49-13.33-33.92
			c12.34-16.36,19.65-36.73,19.65-58.8c0-35.83-19.26-67.14-47.99-84.17c12.57-10.14,20.15-23.3,20.15-37.67
			c0-2.27-0.19-4.51-0.56-6.71c17.77-17.57,28.4-39.88,28.4-64.17c0-31.36-17.73-59.43-45.66-78.23
			c14.12-19.03,23.06-47.24,23.06-78.73c0-18.19-2.99-35.29-8.23-50.16C82.9,1084.99,98,1043.67,98,998.5
			c0-61.34-27.83-115.55-70.41-148.29c30.61-30.89,49.8-75.23,49.8-124.49c0-31.33-7.76-60.68-21.29-85.83
			c13.19-13.81,21.29-32.52,21.29-53.12c0-26.86-13.77-50.51-34.64-64.26c4.69-14,7.25-29.12,7.25-44.89
			c0-19.1-3.75-37.24-10.49-53.6c23.39-26.97,37.88-64.46,37.88-105.9c0-21.28-3.82-41.51-10.71-59.81
			c13.65-13.57,22.1-32.38,22.1-53.16c0-21.83-9.32-41.48-24.2-55.17c8.17-14.8,12.81-31.81,12.81-49.9
			C77.39,51.93,44.53,11.46,0-0.13l0,1919.67h2.44C29.41,1908.02,50.43,1885.96,59.83,1858.77z"/>
		<path class="st1" d="M56.78,1786.81c0.24-0.68,0.47-1.35,0.68-2.04c-0.75-0.48-1.52-0.94-2.3-1.4
			C55.73,1784.5,56.26,1785.65,56.78,1786.81z"/>
	</g>
</svg>