<svg class="yenilik-sol" xmlns="http://www.w3.org/2000/svg" xmlns:xlink="http://www.w3.org/1999/xlink" x="0px" y="0px" viewBox="0 0 100 1920" style="enable-background:new 0 0 100 1920;" xml:space="preserve">
<style type="text/css">
	.first0{fill:none;}
	.first1{fill:#7F0CF7;}
</style>
	<g>
		<path class="first0" d="M22.61,1819c0-18.09,4.64-35.1,12.81-49.9c-14.88-13.69-24.2-33.34-24.2-55.17c0-20.78,8.45-39.59,22.1-53.16
			c-6.89-18.3-10.71-38.53-10.71-59.81c0-41.44,14.49-78.93,37.88-105.9c-6.74-16.36-10.49-34.5-10.49-53.6
			c0-15.77,2.56-30.89,7.25-44.89c-20.87-13.75-34.64-37.4-34.64-64.26c0-20.6,8.1-39.31,21.29-53.12
			c-13.53-25.15-21.29-54.5-21.29-85.83c0-49.26,19.19-93.6,49.8-124.49C29.83,1036.13,2,981.92,2,920.58
			c0-45.17,15.1-86.49,40.05-118.2c-5.24-14.87-8.23-31.97-8.23-50.16c0-31.49,8.94-59.7,23.06-78.73
			c-27.93-18.8-45.66-46.87-45.66-78.23c0-24.29,10.63-46.6,28.4-64.17c-0.37-2.2-0.56-4.44-0.56-6.71
			c0-14.37,7.58-27.53,20.15-37.67c-28.73-17.03-47.99-48.34-47.99-84.17c0-22.07,7.31-42.44,19.65-58.8
			c-8.37-9.43-13.33-21.18-13.33-33.92c0-18.48,10.45-34.88,26.59-45.15c-7.3-20.4-11.4-43.31-11.4-67.51
			c0-22.38,3.5-43.64,9.81-62.85c-15.48-9.79-25-23.11-25-37.78c0-13.91,8.56-26.6,22.63-36.22c9.4-27.19,30.42-49.25,57.39-60.77H0
			v1920h100v-0.33C55.47,1907.62,22.61,1867.15,22.61,1819z"/>
		<path class="first1" d="M40.17,60.31C26.1,69.93,17.54,82.62,17.54,96.53c0,14.67,9.52,27.99,25,37.78c0.21-0.69,0.44-1.36,0.68-2.04
			c0.52,1.16,1.05,2.31,1.62,3.44c-0.78-0.46-1.55-0.92-2.3-1.4c-6.31,19.21-9.81,40.47-9.81,62.85c0,24.2,4.1,47.11,11.4,67.51
			c-16.14,10.27-26.59,26.67-26.59,45.15c0,12.74,4.96,24.49,13.33,33.92c-12.34,16.36-19.65,36.73-19.65,58.8
			c0,35.83,19.26,67.14,47.99,84.17c-12.57,10.14-20.15,23.3-20.15,37.67c0,2.27,0.19,4.51,0.56,6.71
			c-17.77,17.57-28.4,39.88-28.4,64.17c0,31.36,17.73,59.43,45.66,78.23c-14.12,19.03-23.06,47.24-23.06,78.73
			c0,18.19,2.99,35.29,8.23,50.16C17.1,834.09,2,875.41,2,920.58c0,61.34,27.83,115.55,70.41,148.29
			c-30.61,30.89-49.8,75.23-49.8,124.49c0,31.33,7.76,60.68,21.29,85.83c-13.19,13.81-21.29,32.52-21.29,53.12
			c0,26.86,13.77,50.51,34.64,64.26c-4.69,14-7.25,29.12-7.25,44.89c0,19.1,3.75,37.24,10.49,53.6
			c-23.39,26.97-37.88,64.46-37.88,105.9c0,21.28,3.82,41.51,10.71,59.81c-13.65,13.57-22.1,32.38-22.1,53.16
			c0,21.83,9.32,41.48,24.2,55.17c-8.17,14.8-12.81,31.81-12.81,49.9c0,48.15,32.86,88.62,77.39,100.21V-0.46h-2.44
			C70.59,11.06,49.57,33.12,40.17,60.31z"/>
		<path class="st1" d="M43.22,132.27c-0.24,0.68-0.47,1.35-0.68,2.04c0.75,0.48,1.52,0.94,2.3,1.4
			C44.27,134.58,43.74,133.43,43.22,132.27z"/>
	</g>
</svg>