<svg class="yenilik-ust" xmlns="http://www.w3.org/2000/svg" xmlns:xlink="http://www.w3.org/1999/xlink" x="0px" y="0px" viewBox="0 0 1920 100" style="enable-background:new 0 0 1922 102;" xml:space="preserve">
	<style type="text/css">
		.ikinci{fill:none;}
		.ikinci1{fill:#0BB1D4;}
	</style>
	<g>
		<path class="ikinci" d="M100.54,22.61c18.09,0,35.1,4.64,49.9,12.81c13.69-14.88,33.34-24.2,55.17-24.2c20.78,0,39.59,8.45,53.16,22.1
			c18.3-6.89,38.53-10.71,59.81-10.71c41.44,0,78.93,14.49,105.9,37.88c16.36-6.74,34.5-10.49,53.6-10.49
			c15.77,0,30.89,2.56,44.89,7.25c13.75-20.87,37.4-34.64,64.26-34.64c20.6,0,39.31,8.1,53.12,21.29
			c25.15-13.53,54.5-21.29,85.83-21.29c49.26,0,93.6,19.19,124.49,49.8C883.41,29.83,937.62,2,998.96,2
			c45.17,0,86.49,15.1,118.2,40.05c14.87-5.24,31.97-8.23,50.16-8.23c31.49,0,59.7,8.94,78.73,23.06
			c18.8-27.93,46.87-45.66,78.23-45.66c24.29,0,46.6,10.63,64.17,28.4c2.2-0.37,4.44-0.56,6.71-0.56c14.37,0,27.53,7.58,37.67,20.15
			c17.03-28.73,48.34-47.99,84.17-47.99c22.07,0,42.44,7.31,58.8,19.65c9.43-8.37,21.18-13.33,33.92-13.33
			c18.48,0,34.88,10.45,45.15,26.59c20.4-7.3,43.31-11.4,67.51-11.4c22.38,0,43.64,3.5,62.85,9.81c9.79-15.48,23.11-25,37.78-25
			c13.91,0,26.6,8.56,36.22,22.63c27.19,9.4,49.25,30.42,60.77,57.39V0H0v100h0.33C11.92,55.47,52.39,22.61,100.54,22.61z"/>
		<path class="ikinci1" d="M1859.23,40.17c-9.62-14.07-22.31-22.63-36.22-22.63c-14.67,0-27.99,9.52-37.78,25
			c0.69,0.21,1.36,0.44,2.04,0.68c-1.16,0.52-2.31,1.05-3.44,1.62c0.46-0.78,0.92-1.55,1.4-2.3c-19.21-6.31-40.47-9.81-62.85-9.81
			c-24.2,0-47.11,4.1-67.51,11.4c-10.27-16.14-26.67-26.59-45.15-26.59c-12.74,0-24.49,4.96-33.92,13.33
			c-16.36-12.34-36.73-19.65-58.8-19.65c-35.83,0-67.14,19.26-84.17,47.99c-10.14-12.57-23.3-20.15-37.67-20.15
			c-2.27,0-4.51,0.19-6.71,0.56c-17.57-17.77-39.88-28.4-64.17-28.4c-31.36,0-59.43,17.73-78.23,45.66
			c-19.03-14.12-47.24-23.06-78.73-23.06c-18.19,0-35.29,2.99-50.16,8.23C1085.45,17.1,1044.13,2,998.96,2
			c-61.34,0-115.55,27.83-148.29,70.41c-30.89-30.61-75.23-49.8-124.49-49.8c-31.33,0-60.68,7.76-85.83,21.29
			c-13.81-13.19-32.52-21.29-53.12-21.29c-26.86,0-50.51,13.77-64.26,34.64c-14-4.69-29.12-7.25-44.89-7.25
			c-19.1,0-37.24,3.75-53.6,10.49c-26.97-23.39-64.46-37.88-105.9-37.88c-21.28,0-41.51,3.82-59.81,10.71
			c-13.57-13.65-32.38-22.1-53.16-22.1c-21.83,0-41.48,9.32-55.17,24.2c-14.8-8.17-31.81-12.81-49.9-12.81
			C52.39,22.61,11.92,55.47,0.33,100H1920v-2.44C1908.48,70.59,1886.42,49.57,1859.23,40.17z"/>
		<path class="st1" d="M1787.27,43.22c-0.68-0.24-1.35-0.47-2.04-0.68c-0.48,0.75-0.94,1.52-1.4,2.3
			C1784.96,44.27,1786.11,43.74,1787.27,43.22z"/>
	</g>
</svg>