<svg version="1.1" id="katman_1" xmlns="http://www.w3.org/2000/svg" xmlns:xlink="http://www.w3.org/1999/xlink" x="0px" y="0px"
	 viewBox="0 0 50 50" style="enable-background:new 0 0 50 50;" xml:space="preserve">
<style type="text/css">
	.st0{fill:none;}
	.st1{fill:#F9B233;}
</style>
<g>
	<path class="st0" d="M50,50V0l-0.11,0c-0.62,4.63-4.06,8.17-8.22,8.17c-1.93,0-3.7-0.75-5.11-2.03c-2.28,2.24-5.15,3.58-8.28,3.58
		c-2.9,0-5.58-1.15-7.77-3.11c-2.16,2.61-5.24,4.25-8.67,4.25C6.05,10.86,1.24,6.18,0.21,0L0,0l0,50H50z"/>
	<path class="st1" d="M11.84,10.86c3.43,0,6.51-1.64,8.67-4.25c2.19,1.96,4.87,3.11,7.77,3.11c3.13,0,6-1.34,8.28-3.58
		c1.41,1.28,3.18,2.03,5.11,2.03c4.16,0,7.6-3.54,8.22-8.17L0.21,0C1.24,6.18,6.05,10.86,11.84,10.86z"/>
</g>
</svg>
