<svg version="1.1" id="katman_1" xmlns="http://www.w3.org/2000/svg" xmlns:xlink="http://www.w3.org/1999/xlink" x="0px" y="0px"
	 viewBox="0 0 50 50" style="enable-background:new 0 0 50 50;" xml:space="preserve">
<style type="text/css">
	.st0{fill:none;}
	.st1{fill:#F9B233;}
</style>
<g>
	<path class="st0" d="M50,0L0,0l0,0.11c4.63,0.62,8.17,4.06,8.17,8.22c0,1.93-0.75,3.7-2.03,5.11c2.24,2.28,3.58,5.15,3.58,8.28
		c0,2.9-1.15,5.58-3.11,7.77c2.61,2.16,4.25,5.24,4.25,8.67c0,5.79-4.68,10.6-10.86,11.63L0,50l50,0L50,0z"/>
	<path class="st1" d="M10.86,38.16c0-3.43-1.64-6.51-4.25-8.67c1.96-2.19,3.11-4.87,3.11-7.77c0-3.13-1.34-6-3.58-8.28
		c1.28-1.41,2.03-3.18,2.03-5.11c0-4.16-3.54-7.6-8.17-8.22l0,49.68C6.18,48.76,10.86,43.95,10.86,38.16z"/>
</g>
</svg>
