<svg version="1.1" id="katman_1" xmlns="http://www.w3.org/2000/svg" xmlns:xlink="http://www.w3.org/1999/xlink" x="0px" y="0px"
	 viewBox="0 0 50 50" style="enable-background:new 0 0 50 50;" xml:space="preserve">
<style type="text/css">
	.st0{fill:none;}
	.st1{fill:#F9B233;}
</style>
<g>
	<path class="st0" d="M0,50h50v-0.11c-4.63-0.62-8.17-4.06-8.17-8.22c0-1.93,0.75-3.7,2.03-5.11c-2.24-2.28-3.58-5.15-3.58-8.28
		c0-2.9,1.15-5.58,3.11-7.77c-2.61-2.16-4.25-5.24-4.25-8.67c0-5.79,4.68-10.6,10.86-11.63V0H0V50z"/>
	<path class="st1" d="M39.14,11.84c0,3.43,1.64,6.51,4.25,8.67c-1.96,2.19-3.11,4.87-3.11,7.77c0,3.13,1.34,6,3.58,8.28
		c-1.28,1.41-2.03,3.18-2.03,5.11c0,4.16,3.54,7.6,8.17,8.22V0.21C43.82,1.24,39.14,6.05,39.14,11.84z"/>
</g>
</svg>
