<svg class="yenilik-alt" xmlns="http://www.w3.org/2000/svg" xmlns:xlink="http://www.w3.org/1999/xlink" x="0px" y="0px" viewBox="0 0 1920 100" style="enable-background:new 0 0 1920 100;" xml:space="preserve">
	<style type="text/css">
		.besinci{fill:none;}
		.besinci1{fill:#FF5013;}
	</style>
	<g>
		<path class="besinci" d="M1819.46,77.39c-18.09,0-35.1-4.64-49.9-12.81c-13.69,14.88-33.34,24.2-55.17,24.2
			c-20.78,0-39.59-8.45-53.16-22.1c-18.3,6.89-38.53,10.71-59.81,10.71c-41.44,0-78.93-14.49-105.9-37.88
			c-16.36,6.74-34.5,10.49-53.6,10.49c-15.77,0-30.89-2.56-44.89-7.25c-13.75,20.87-37.4,34.64-64.26,34.64
			c-20.6,0-39.31-8.1-53.12-21.29c-25.15,13.53-54.5,21.29-85.83,21.29c-49.26,0-93.6-19.19-124.49-49.8
			C1036.59,70.17,982.38,98,921.04,98c-45.17,0-86.49-15.1-118.2-40.05c-14.87,5.24-31.97,8.23-50.16,8.23
			c-31.49,0-59.7-8.94-78.73-23.06c-18.8,27.93-46.87,45.66-78.23,45.66c-24.29,0-46.6-10.63-64.17-28.4
			c-2.2,0.37-4.44,0.56-6.71,0.56c-14.37,0-27.53-7.58-37.67-20.15C470.14,69.52,438.83,88.78,403,88.78
			c-22.07,0-42.44-7.31-58.8-19.65c-9.43,8.37-21.18,13.33-33.92,13.33c-18.48,0-34.88-10.45-45.15-26.59
			c-20.4,7.3-43.31,11.4-67.51,11.4c-22.38,0-43.64-3.5-62.85-9.81c-9.79,15.48-23.11,25-37.78,25c-13.91,0-26.6-8.56-36.22-22.63
			C33.58,50.43,11.52,29.41,0,2.44V100h1920V0h-0.33C1908.08,44.53,1867.61,77.39,1819.46,77.39z"/>
		<path class="besinci1" d="M60.77,59.83c9.62,14.07,22.31,22.63,36.22,22.63c14.67,0,27.99-9.52,37.78-25c-0.69-0.21-1.36-0.44-2.04-0.68
			c1.16-0.52,2.31-1.05,3.44-1.62c-0.46,0.78-0.92,1.55-1.4,2.3c19.21,6.31,40.47,9.81,62.85,9.81c24.2,0,47.11-4.1,67.51-11.4
			c10.27,16.14,26.67,26.59,45.15,26.59c12.74,0,24.49-4.96,33.92-13.33c16.36,12.34,36.73,19.65,58.8,19.65
			c35.83,0,67.14-19.26,84.17-47.99c10.14,12.57,23.3,20.15,37.67,20.15c2.27,0,4.51-0.19,6.71-0.56
			c17.57,17.77,39.88,28.4,64.17,28.4c31.36,0,59.43-17.73,78.23-45.66c19.03,14.12,47.24,23.06,78.73,23.06
			c18.19,0,35.29-2.99,50.16-8.23C834.55,82.9,875.87,98,921.04,98c61.34,0,115.55-27.83,148.29-70.41
			c30.89,30.61,75.23,49.8,124.49,49.8c31.33,0,60.68-7.76,85.83-21.29c13.81,13.19,32.52,21.29,53.12,21.29
			c26.86,0,50.51-13.77,64.26-34.64c14,4.69,29.12,7.25,44.89,7.25c19.1,0,37.24-3.75,53.6-10.49
			c26.97,23.39,64.46,37.88,105.9,37.88c21.28,0,41.51-3.82,59.81-10.71c13.57,13.65,32.38,22.1,53.16,22.1
			c21.83,0,41.48-9.32,55.17-24.2c14.8,8.17,31.81,12.81,49.9,12.81c48.15,0,88.62-32.86,100.21-77.39H0v2.44
			C11.52,29.41,33.58,50.43,60.77,59.83z"/>
		<path class="st1" d="M132.73,56.78c0.68,0.24,1.35,0.47,2.04,0.68c0.48-0.75,0.94-1.52,1.4-2.3
			C135.04,55.73,133.89,56.26,132.73,56.78z"/>
	</g>
</svg>